<?xml version="1.0" encoding="utf-8"?>
<!-- Generator: Adobe Illustrator 23.0.2, SVG Export Plug-In . SVG Version: 6.00 Build 0)  -->
<svg version="1.1" id="Capa_1" xmlns="http://www.w3.org/2000/svg" xmlns:xlink="http://www.w3.org/1999/xlink" x="0px" y="0px"
	 viewBox="0 0 464.49 87.04" style="enable-background:new 0 0 464.49 87.04;" xml:space="preserve">
<style type="text/css">
	.st0{fill:#FFFFFF;}
</style>
<g>
	<path class="st0" d="M167.08,35.44c-1.37-1.78-3.1-3.15-5.2-4.11c-2.1-0.96-4.27-1.44-6.51-1.44c-2.74,0-5.22,0.51-7.43,1.54
		c-2.21,1.03-4.11,2.43-5.68,4.21c-1.57,1.78-2.8,3.87-3.66,6.27c-0.87,2.4-1.3,4.96-1.3,7.7c0,2.56,0.41,4.98,1.23,7.26
		c0.82,2.28,2.01,4.29,3.56,6.03c1.55,1.74,3.45,3.1,5.68,4.11c2.24,1,4.77,1.51,7.6,1.51c2.78,0,5.23-0.57,7.33-1.71
		c2.1-1.14,3.88-2.74,5.34-4.79l5.55,4.18c-0.37,0.5-1,1.22-1.92,2.16c-0.91,0.94-2.12,1.87-3.63,2.81
		c-1.51,0.94-3.32,1.76-5.44,2.46c-2.12,0.71-4.58,1.06-7.36,1.06c-3.83,0-7.29-0.73-10.38-2.19c-3.08-1.46-5.71-3.38-7.88-5.75
		c-2.17-2.37-3.82-5.06-4.96-8.05c-1.14-2.99-1.71-6.01-1.71-9.07c0-3.74,0.62-7.2,1.85-10.37c1.23-3.17,2.96-5.91,5.17-8.22
		c2.21-2.31,4.87-4.1,7.98-5.38c3.1-1.28,6.53-1.92,10.27-1.92c3.2,0,6.33,0.62,9.42,1.85c3.08,1.23,5.6,3.13,7.57,5.68
		L167.08,35.44z"/>
	<path class="st0" d="M178.38,57.21c0-2.37,0.45-4.59,1.34-6.64s2.11-3.86,3.66-5.41c1.55-1.55,3.38-2.77,5.48-3.66
		c2.1-0.89,4.36-1.34,6.78-1.34c2.42,0,4.68,0.45,6.78,1.34c2.1,0.89,3.93,2.11,5.48,3.66c1.55,1.55,2.77,3.36,3.66,5.41
		c0.89,2.05,1.34,4.27,1.34,6.64c0,2.38-0.44,4.6-1.34,6.68c-0.89,2.08-2.11,3.88-3.66,5.41c-1.55,1.53-3.38,2.74-5.48,3.63
		c-2.1,0.89-4.36,1.34-6.78,1.34c-2.42,0-4.68-0.45-6.78-1.34c-2.1-0.89-3.93-2.1-5.48-3.63c-1.55-1.53-2.77-3.33-3.66-5.41
		C178.82,61.82,178.38,59.59,178.38,57.21z M184.95,57.21c0,1.64,0.25,3.16,0.75,4.55c0.5,1.39,1.21,2.58,2.12,3.56
		c0.91,0.98,2.03,1.76,3.36,2.33c1.32,0.57,2.81,0.86,4.45,0.86s3.13-0.28,4.45-0.86c1.32-0.57,2.44-1.35,3.36-2.33
		c0.91-0.98,1.62-2.17,2.12-3.56c0.5-1.39,0.75-2.91,0.75-4.55s-0.25-3.16-0.75-4.55c-0.5-1.39-1.21-2.58-2.12-3.56
		c-0.91-0.98-2.03-1.76-3.36-2.33c-1.32-0.57-2.81-0.86-4.45-0.86s-3.13,0.29-4.45,0.86c-1.32,0.57-2.44,1.35-3.36,2.33
		c-0.91,0.98-1.62,2.17-2.12,3.56C185.2,54.05,184.95,55.57,184.95,57.21z"/>
	<path class="st0" d="M220.63,40.99h6.16v5h0.14c0.78-1.73,2.12-3.14,4.04-4.21c1.92-1.07,4.13-1.61,6.64-1.61
		c1.55,0,3.05,0.24,4.49,0.72c1.44,0.48,2.69,1.22,3.77,2.23s1.93,2.29,2.57,3.87c0.64,1.58,0.96,3.44,0.96,5.58v20.89h-6.16V54.27
		c0-1.51-0.21-2.8-0.62-3.87c-0.41-1.07-0.96-1.94-1.64-2.6c-0.68-0.66-1.47-1.14-2.36-1.44c-0.89-0.3-1.81-0.45-2.77-0.45
		c-1.28,0-2.47,0.21-3.56,0.62s-2.05,1.06-2.88,1.95c-0.82,0.89-1.46,2.02-1.92,3.39c-0.46,1.37-0.68,2.99-0.68,4.86v16.71h-6.16
		V40.99z"/>
	<path class="st0" d="M291.23,73.45h-6.16v-4.66h-0.14c-1.19,1.74-2.82,3.08-4.9,4.04s-4.21,1.44-6.4,1.44
		c-2.51,0-4.78-0.43-6.81-1.3c-2.03-0.87-3.77-2.08-5.2-3.63c-1.44-1.55-2.55-3.36-3.32-5.41c-0.78-2.05-1.16-4.29-1.16-6.71
		c0-2.42,0.39-4.67,1.16-6.75c0.78-2.08,1.88-3.88,3.32-5.41c1.44-1.53,3.17-2.73,5.2-3.59s4.3-1.3,6.81-1.3
		c2.33,0,4.52,0.49,6.57,1.47c2.05,0.98,3.63,2.32,4.72,4.01h0.14V21.67h6.16V73.45z M274.39,68.51c1.64,0,3.13-0.28,4.45-0.86
		c1.32-0.57,2.44-1.35,3.36-2.33c0.91-0.98,1.62-2.17,2.12-3.56c0.5-1.39,0.75-2.91,0.75-4.55s-0.25-3.16-0.75-4.55
		c-0.5-1.39-1.21-2.58-2.12-3.56s-2.03-1.76-3.36-2.33c-1.32-0.57-2.81-0.86-4.45-0.86s-3.13,0.29-4.45,0.86
		c-1.32,0.57-2.44,1.35-3.36,2.33c-0.91,0.98-1.62,2.17-2.12,3.56c-0.5,1.39-0.75,2.91-0.75,4.55s0.25,3.16,0.75,4.55
		c0.5,1.39,1.21,2.58,2.12,3.56c0.91,0.98,2.03,1.76,3.36,2.33C271.26,68.23,272.74,68.51,274.39,68.51z"/>
	<path class="st0" d="M298.97,57.21c0-2.37,0.44-4.59,1.33-6.64s2.11-3.86,3.66-5.41c1.55-1.55,3.38-2.77,5.48-3.66
		c2.1-0.89,4.36-1.34,6.78-1.34s4.68,0.45,6.78,1.34c2.1,0.89,3.93,2.11,5.48,3.66c1.55,1.55,2.77,3.36,3.66,5.41
		c0.89,2.05,1.34,4.27,1.34,6.64c0,2.38-0.45,4.6-1.34,6.68c-0.89,2.08-2.11,3.88-3.66,5.41c-1.55,1.53-3.38,2.74-5.48,3.63
		c-2.1,0.89-4.36,1.34-6.78,1.34s-4.68-0.45-6.78-1.34c-2.1-0.89-3.93-2.1-5.48-3.63c-1.55-1.53-2.77-3.33-3.66-5.41
		C299.42,61.82,298.97,59.59,298.97,57.21z M305.54,57.21c0,1.64,0.25,3.16,0.75,4.55c0.5,1.39,1.21,2.58,2.12,3.56
		c0.91,0.98,2.03,1.76,3.36,2.33c1.32,0.57,2.81,0.86,4.45,0.86s3.13-0.28,4.45-0.86c1.32-0.57,2.44-1.35,3.36-2.33
		c0.91-0.98,1.62-2.17,2.12-3.56c0.5-1.39,0.75-2.91,0.75-4.55s-0.25-3.16-0.75-4.55c-0.5-1.39-1.21-2.58-2.12-3.56
		s-2.03-1.76-3.36-2.33c-1.32-0.57-2.81-0.86-4.45-0.86s-3.13,0.29-4.45,0.86c-1.32,0.57-2.44,1.35-3.36,2.33
		c-0.91,0.98-1.62,2.17-2.12,3.56C305.79,54.05,305.54,55.57,305.54,57.21z"/>
	<path class="st0" d="M336.16,24.96h7.6L358,64.41h0.14l14.79-39.45h7.19l-19.11,48.49h-6.16L336.16,24.96z"/>
	<path class="st0" d="M382.17,29.34c0-1.23,0.45-2.29,1.33-3.18c0.89-0.89,1.95-1.34,3.18-1.34s2.29,0.45,3.18,1.34
		c0.89,0.89,1.33,1.95,1.33,3.18c0,1.23-0.45,2.29-1.33,3.18c-0.89,0.89-1.95,1.34-3.18,1.34s-2.29-0.45-3.18-1.34
		C382.62,31.64,382.17,30.58,382.17,29.34z M383.61,40.99h6.16v32.46h-6.16V40.99z"/>
	<path class="st0" d="M395.67,40.99h7.12l9.72,24.86l9.31-24.86h6.57l-12.74,32.46h-6.78L395.67,40.99z"/>
	<path class="st0" d="M438.47,59.47c0,1.42,0.31,2.71,0.92,3.87c0.62,1.16,1.43,2.16,2.43,2.98c1,0.82,2.17,1.46,3.49,1.92
		c1.32,0.46,2.69,0.69,4.11,0.69c1.92,0,3.58-0.45,5-1.34c1.42-0.89,2.72-2.06,3.9-3.53l4.66,3.56c-3.42,4.43-8.22,6.64-14.38,6.64
		c-2.56,0-4.87-0.43-6.95-1.3c-2.08-0.87-3.83-2.07-5.27-3.59c-1.44-1.53-2.54-3.33-3.32-5.41c-0.78-2.08-1.16-4.33-1.16-6.75
		c0-2.42,0.42-4.67,1.27-6.75c0.84-2.08,2.01-3.88,3.49-5.41c1.48-1.53,3.25-2.73,5.31-3.59c2.05-0.87,4.29-1.3,6.71-1.3
		c2.88,0,5.31,0.5,7.29,1.51c1.99,1,3.62,2.32,4.9,3.94c1.28,1.62,2.2,3.45,2.77,5.48c0.57,2.03,0.86,4.1,0.86,6.2v2.19H438.47z
		 M457.92,54.54c-0.05-1.37-0.26-2.62-0.65-3.77c-0.39-1.14-0.97-2.13-1.75-2.98c-0.78-0.84-1.75-1.51-2.91-1.99
		c-1.16-0.48-2.52-0.72-4.08-0.72c-1.51,0-2.89,0.29-4.14,0.86c-1.26,0.57-2.32,1.31-3.18,2.23c-0.87,0.91-1.54,1.93-2.02,3.05
		c-0.48,1.12-0.72,2.23-0.72,3.32H457.92z"/>
</g>
<path class="st0" d="M88.39,87.04h-23.6c-2.04,0-3.7-1.65-3.7-3.7V64.06h-9.98v19.28c0,2.04-1.65,3.7-3.7,3.7h-23.6
	c-2.04,0-3.7-1.65-3.7-3.7v-37.3H3.7c-1.6,0-3.01-1.02-3.51-2.54c-0.5-1.52,0.03-3.18,1.32-4.13L53.92,0.72
	c1.3-0.96,3.08-0.96,4.39,0l52.41,38.65c1.28,0.95,1.82,2.61,1.32,4.13c-0.5,1.52-1.91,2.54-3.51,2.54H92.09v37.3
	C92.09,85.38,90.43,87.04,88.39,87.04z M68.49,79.65H84.7v-37.3c0-2.04,1.65-3.7,3.7-3.7c0,0,2.4,0,4.17,0c4.72,0,0.57-3.06,0-3.48
	c-4.1-3.03-36.45-26.88-36.45-26.88s-34.6,25.51-36.45,26.88c-0.77,0.57-4.75,3.48,0,3.48h4.17c2.04,0,3.7,1.65,3.7,3.7v37.3h16.21
	V60.37c0-2.04,1.65-3.7,3.7-3.7h17.37c2.04,0,3.7,1.65,3.7,3.7V79.65z"/>
</svg>
